<mxfile host="app.diagrams.net" modified="2020-12-11T16:05:36.520Z" agent="5.0 (Windows NT 10.0; Win64; x64) AppleWebKit/537.36 (KHTML, like Gecko) Chrome/87.0.4280.88 Safari/537.36" etag="Jpo34JWh7LOqRZM5gKc7" version="14.0.0" type="github">
  <diagram id="C5RBs43oDa-KdzZeNtuy" name="Page-1">
    <mxGraphModel dx="1145" dy="635" grid="1" gridSize="10" guides="1" tooltips="1" connect="1" arrows="1" fold="1" page="1" pageScale="1" pageWidth="827" pageHeight="1169" math="0" shadow="1">
      <root>
        <mxCell id="WIyWlLk6GJQsqaUBKTNV-0" />
        <mxCell id="WIyWlLk6GJQsqaUBKTNV-1" parent="WIyWlLk6GJQsqaUBKTNV-0" />
        <mxCell id="n4TWB-wOlsWJOXDKtbY9-2" value="&lt;font style=&quot;font-size: 24px&quot; face=&quot;Lucida Console&quot;&gt;MASTERMIND&lt;/font&gt;" style="text;html=1;align=center;verticalAlign=middle;resizable=0;points=[];autosize=1;" vertex="1" parent="WIyWlLk6GJQsqaUBKTNV-1">
          <mxGeometry x="460" y="20" width="160" height="20" as="geometry" />
        </mxCell>
        <mxCell id="n4TWB-wOlsWJOXDKtbY9-6" value="" style="edgeStyle=orthogonalEdgeStyle;rounded=0;orthogonalLoop=1;jettySize=auto;html=1;" edge="1" parent="WIyWlLk6GJQsqaUBKTNV-1" source="n4TWB-wOlsWJOXDKtbY9-4" target="n4TWB-wOlsWJOXDKtbY9-5">
          <mxGeometry relative="1" as="geometry" />
        </mxCell>
        <mxCell id="n4TWB-wOlsWJOXDKtbY9-4" value="Start" style="ellipse;whiteSpace=wrap;html=1;" vertex="1" parent="WIyWlLk6GJQsqaUBKTNV-1">
          <mxGeometry x="496" y="70" width="96" height="50" as="geometry" />
        </mxCell>
        <mxCell id="n4TWB-wOlsWJOXDKtbY9-8" value="" style="edgeStyle=orthogonalEdgeStyle;rounded=0;orthogonalLoop=1;jettySize=auto;html=1;" edge="1" parent="WIyWlLk6GJQsqaUBKTNV-1" source="n4TWB-wOlsWJOXDKtbY9-5" target="n4TWB-wOlsWJOXDKtbY9-7">
          <mxGeometry relative="1" as="geometry" />
        </mxCell>
        <mxCell id="n4TWB-wOlsWJOXDKtbY9-5" value="computer generate code" style="whiteSpace=wrap;html=1;" vertex="1" parent="WIyWlLk6GJQsqaUBKTNV-1">
          <mxGeometry x="484" y="150" width="120" height="60" as="geometry" />
        </mxCell>
        <mxCell id="n4TWB-wOlsWJOXDKtbY9-11" value="" style="edgeStyle=orthogonalEdgeStyle;rounded=0;orthogonalLoop=1;jettySize=auto;html=1;" edge="1" parent="WIyWlLk6GJQsqaUBKTNV-1" source="n4TWB-wOlsWJOXDKtbY9-7" target="n4TWB-wOlsWJOXDKtbY9-10">
          <mxGeometry relative="1" as="geometry" />
        </mxCell>
        <mxCell id="n4TWB-wOlsWJOXDKtbY9-7" value="player guess &lt;br&gt;code" style="shape=parallelogram;perimeter=parallelogramPerimeter;whiteSpace=wrap;html=1;fixedSize=1;" vertex="1" parent="WIyWlLk6GJQsqaUBKTNV-1">
          <mxGeometry x="484" y="240" width="120" height="60" as="geometry" />
        </mxCell>
        <mxCell id="n4TWB-wOlsWJOXDKtbY9-14" value="" style="edgeStyle=orthogonalEdgeStyle;rounded=0;orthogonalLoop=1;jettySize=auto;html=1;" edge="1" parent="WIyWlLk6GJQsqaUBKTNV-1" source="n4TWB-wOlsWJOXDKtbY9-10" target="n4TWB-wOlsWJOXDKtbY9-13">
          <mxGeometry relative="1" as="geometry" />
        </mxCell>
        <mxCell id="n4TWB-wOlsWJOXDKtbY9-22" value="" style="edgeStyle=orthogonalEdgeStyle;rounded=0;orthogonalLoop=1;jettySize=auto;html=1;" edge="1" parent="WIyWlLk6GJQsqaUBKTNV-1" source="n4TWB-wOlsWJOXDKtbY9-10" target="n4TWB-wOlsWJOXDKtbY9-21">
          <mxGeometry relative="1" as="geometry" />
        </mxCell>
        <mxCell id="n4TWB-wOlsWJOXDKtbY9-10" value="right &lt;br&gt;guess ?" style="rhombus;whiteSpace=wrap;html=1;" vertex="1" parent="WIyWlLk6GJQsqaUBKTNV-1">
          <mxGeometry x="497" y="340" width="94" height="90" as="geometry" />
        </mxCell>
        <mxCell id="n4TWB-wOlsWJOXDKtbY9-20" style="edgeStyle=orthogonalEdgeStyle;rounded=0;orthogonalLoop=1;jettySize=auto;html=1;exitX=0.5;exitY=0;exitDx=0;exitDy=0;entryX=0.75;entryY=0;entryDx=0;entryDy=0;" edge="1" parent="WIyWlLk6GJQsqaUBKTNV-1" source="n4TWB-wOlsWJOXDKtbY9-13" target="n4TWB-wOlsWJOXDKtbY9-7">
          <mxGeometry relative="1" as="geometry" />
        </mxCell>
        <mxCell id="n4TWB-wOlsWJOXDKtbY9-13" value="feedback" style="whiteSpace=wrap;html=1;" vertex="1" parent="WIyWlLk6GJQsqaUBKTNV-1">
          <mxGeometry x="644" y="260" width="120" height="60" as="geometry" />
        </mxCell>
        <mxCell id="n4TWB-wOlsWJOXDKtbY9-21" value="end" style="ellipse;whiteSpace=wrap;html=1;" vertex="1" parent="WIyWlLk6GJQsqaUBKTNV-1">
          <mxGeometry x="491" y="460" width="106" height="50" as="geometry" />
        </mxCell>
        <mxCell id="n4TWB-wOlsWJOXDKtbY9-35" value="player" style="swimlane;fontStyle=1;align=center;verticalAlign=top;childLayout=stackLayout;horizontal=1;startSize=26;horizontalStack=0;resizeParent=1;resizeParentMax=0;resizeLast=0;collapsible=1;marginBottom=0;" vertex="1" parent="WIyWlLk6GJQsqaUBKTNV-1">
          <mxGeometry x="76.5" y="551" width="160" height="138" as="geometry">
            <mxRectangle x="570" y="600" width="70" height="26" as="alternateBounds" />
          </mxGeometry>
        </mxCell>
        <mxCell id="n4TWB-wOlsWJOXDKtbY9-36" value="name&#xa;" style="text;strokeColor=none;fillColor=none;align=left;verticalAlign=top;spacingLeft=4;spacingRight=4;overflow=hidden;rotatable=0;points=[[0,0.5],[1,0.5]];portConstraint=eastwest;" vertex="1" parent="n4TWB-wOlsWJOXDKtbY9-35">
          <mxGeometry y="26" width="160" height="26" as="geometry" />
        </mxCell>
        <mxCell id="n4TWB-wOlsWJOXDKtbY9-40" value="(update) type = [&#39;hu&#39;,&#39;ai&#39;]" style="text;strokeColor=none;fillColor=none;align=left;verticalAlign=top;spacingLeft=4;spacingRight=4;overflow=hidden;rotatable=0;points=[[0,0.5],[1,0.5]];portConstraint=eastwest;" vertex="1" parent="n4TWB-wOlsWJOXDKtbY9-35">
          <mxGeometry y="52" width="160" height="26" as="geometry" />
        </mxCell>
        <mxCell id="n4TWB-wOlsWJOXDKtbY9-37" value="" style="line;strokeWidth=1;fillColor=none;align=left;verticalAlign=middle;spacingTop=-1;spacingLeft=3;spacingRight=3;rotatable=0;labelPosition=right;points=[];portConstraint=eastwest;" vertex="1" parent="n4TWB-wOlsWJOXDKtbY9-35">
          <mxGeometry y="78" width="160" height="8" as="geometry" />
        </mxCell>
        <mxCell id="n4TWB-wOlsWJOXDKtbY9-38" value="initialize(name, type)" style="text;strokeColor=none;fillColor=none;align=left;verticalAlign=top;spacingLeft=4;spacingRight=4;overflow=hidden;rotatable=0;points=[[0,0.5],[1,0.5]];portConstraint=eastwest;" vertex="1" parent="n4TWB-wOlsWJOXDKtbY9-35">
          <mxGeometry y="86" width="160" height="26" as="geometry" />
        </mxCell>
        <mxCell id="n4TWB-wOlsWJOXDKtbY9-66" value="[update] set_type" style="text;strokeColor=none;fillColor=none;align=left;verticalAlign=top;spacingLeft=4;spacingRight=4;overflow=hidden;rotatable=0;points=[[0,0.5],[1,0.5]];portConstraint=eastwest;" vertex="1" parent="n4TWB-wOlsWJOXDKtbY9-35">
          <mxGeometry y="112" width="160" height="26" as="geometry" />
        </mxCell>
        <mxCell id="n4TWB-wOlsWJOXDKtbY9-45" value="board" style="swimlane;fontStyle=1;align=center;verticalAlign=top;childLayout=stackLayout;horizontal=1;startSize=26;horizontalStack=0;resizeParent=1;resizeParentMax=0;resizeLast=0;collapsible=1;marginBottom=0;" vertex="1" parent="WIyWlLk6GJQsqaUBKTNV-1">
          <mxGeometry x="26" y="861" width="210.5" height="216" as="geometry" />
        </mxCell>
        <mxCell id="n4TWB-wOlsWJOXDKtbY9-46" value="code_breaker_board = 12 * [1,2,3,4]" style="text;strokeColor=none;fillColor=none;align=left;verticalAlign=top;spacingLeft=4;spacingRight=4;overflow=hidden;rotatable=0;points=[[0,0.5],[1,0.5]];portConstraint=eastwest;" vertex="1" parent="n4TWB-wOlsWJOXDKtbY9-45">
          <mxGeometry y="26" width="210.5" height="26" as="geometry" />
        </mxCell>
        <mxCell id="n4TWB-wOlsWJOXDKtbY9-67" value="code_maker_board = [1,2,3,4]" style="text;strokeColor=none;fillColor=none;align=left;verticalAlign=top;spacingLeft=4;spacingRight=4;overflow=hidden;rotatable=0;points=[[0,0.5],[1,0.5]];portConstraint=eastwest;" vertex="1" parent="n4TWB-wOlsWJOXDKtbY9-45">
          <mxGeometry y="52" width="210.5" height="26" as="geometry" />
        </mxCell>
        <mxCell id="n4TWB-wOlsWJOXDKtbY9-68" value="pins_board = 12 * [1,2,3,4]" style="text;strokeColor=none;fillColor=none;align=left;verticalAlign=top;spacingLeft=4;spacingRight=4;overflow=hidden;rotatable=0;points=[[0,0.5],[1,0.5]];portConstraint=eastwest;" vertex="1" parent="n4TWB-wOlsWJOXDKtbY9-45">
          <mxGeometry y="78" width="210.5" height="26" as="geometry" />
        </mxCell>
        <mxCell id="n4TWB-wOlsWJOXDKtbY9-47" value="" style="line;strokeWidth=1;fillColor=none;align=left;verticalAlign=middle;spacingTop=-1;spacingLeft=3;spacingRight=3;rotatable=0;labelPosition=right;points=[];portConstraint=eastwest;" vertex="1" parent="n4TWB-wOlsWJOXDKtbY9-45">
          <mxGeometry y="104" width="210.5" height="8" as="geometry" />
        </mxCell>
        <mxCell id="n4TWB-wOlsWJOXDKtbY9-71" value="initialize(player1, player2)" style="text;strokeColor=none;fillColor=none;align=left;verticalAlign=top;spacingLeft=4;spacingRight=4;overflow=hidden;rotatable=0;points=[[0,0.5],[1,0.5]];portConstraint=eastwest;" vertex="1" parent="n4TWB-wOlsWJOXDKtbY9-45">
          <mxGeometry y="112" width="210.5" height="26" as="geometry" />
        </mxCell>
        <mxCell id="n4TWB-wOlsWJOXDKtbY9-48" value="code_generator" style="text;strokeColor=none;fillColor=none;align=left;verticalAlign=top;spacingLeft=4;spacingRight=4;overflow=hidden;rotatable=0;points=[[0,0.5],[1,0.5]];portConstraint=eastwest;" vertex="1" parent="n4TWB-wOlsWJOXDKtbY9-45">
          <mxGeometry y="138" width="210.5" height="26" as="geometry" />
        </mxCell>
        <mxCell id="n4TWB-wOlsWJOXDKtbY9-72" value="cb_turn" style="text;strokeColor=none;fillColor=none;align=left;verticalAlign=top;spacingLeft=4;spacingRight=4;overflow=hidden;rotatable=0;points=[[0,0.5],[1,0.5]];portConstraint=eastwest;" vertex="1" parent="n4TWB-wOlsWJOXDKtbY9-45">
          <mxGeometry y="164" width="210.5" height="26" as="geometry" />
        </mxCell>
        <mxCell id="n4TWB-wOlsWJOXDKtbY9-73" value="cm_turn" style="text;strokeColor=none;fillColor=none;align=left;verticalAlign=top;spacingLeft=4;spacingRight=4;overflow=hidden;rotatable=0;points=[[0,0.5],[1,0.5]];portConstraint=eastwest;" vertex="1" parent="n4TWB-wOlsWJOXDKtbY9-45">
          <mxGeometry y="190" width="210.5" height="26" as="geometry" />
        </mxCell>
        <mxCell id="n4TWB-wOlsWJOXDKtbY9-49" value="game" style="swimlane;fontStyle=1;align=center;verticalAlign=top;childLayout=stackLayout;horizontal=1;startSize=26;horizontalStack=0;resizeParent=1;resizeParentMax=0;resizeLast=0;collapsible=1;marginBottom=0;" vertex="1" parent="WIyWlLk6GJQsqaUBKTNV-1">
          <mxGeometry x="310" y="611" width="200" height="320" as="geometry" />
        </mxCell>
        <mxCell id="n4TWB-wOlsWJOXDKtbY9-50" value="(update) mode = [&quot;PvC&quot;,&quot;PvP&quot;] " style="text;strokeColor=none;fillColor=none;align=left;verticalAlign=top;spacingLeft=4;spacingRight=4;overflow=hidden;rotatable=0;points=[[0,0.5],[1,0.5]];portConstraint=eastwest;" vertex="1" parent="n4TWB-wOlsWJOXDKtbY9-49">
          <mxGeometry y="26" width="200" height="26" as="geometry" />
        </mxCell>
        <mxCell id="n4TWB-wOlsWJOXDKtbY9-55" value="(update) difficulty = [&#39;easy&#39;,&#39;hard&#39;]" style="text;strokeColor=none;fillColor=none;align=left;verticalAlign=top;spacingLeft=4;spacingRight=4;overflow=hidden;rotatable=0;points=[[0,0.5],[1,0.5]];portConstraint=eastwest;" vertex="1" parent="n4TWB-wOlsWJOXDKtbY9-49">
          <mxGeometry y="52" width="200" height="26" as="geometry" />
        </mxCell>
        <mxCell id="n4TWB-wOlsWJOXDKtbY9-53" value="turns = 12" style="text;strokeColor=none;fillColor=none;align=left;verticalAlign=top;spacingLeft=4;spacingRight=4;overflow=hidden;rotatable=0;points=[[0,0.5],[1,0.5]];portConstraint=eastwest;" vertex="1" parent="n4TWB-wOlsWJOXDKtbY9-49">
          <mxGeometry y="78" width="200" height="26" as="geometry" />
        </mxCell>
        <mxCell id="n4TWB-wOlsWJOXDKtbY9-51" value="" style="line;strokeWidth=1;fillColor=none;align=left;verticalAlign=middle;spacingTop=-1;spacingLeft=3;spacingRight=3;rotatable=0;labelPosition=right;points=[];portConstraint=eastwest;" vertex="1" parent="n4TWB-wOlsWJOXDKtbY9-49">
          <mxGeometry y="104" width="200" height="8" as="geometry" />
        </mxCell>
        <mxCell id="n4TWB-wOlsWJOXDKtbY9-70" value="initialize(player1, player2, board)" style="text;strokeColor=none;fillColor=none;align=left;verticalAlign=top;spacingLeft=4;spacingRight=4;overflow=hidden;rotatable=0;points=[[0,0.5],[1,0.5]];portConstraint=eastwest;" vertex="1" parent="n4TWB-wOlsWJOXDKtbY9-49">
          <mxGeometry y="112" width="200" height="26" as="geometry" />
        </mxCell>
        <mxCell id="n4TWB-wOlsWJOXDKtbY9-75" value="create_playaer" style="text;strokeColor=none;fillColor=none;align=left;verticalAlign=top;spacingLeft=4;spacingRight=4;overflow=hidden;rotatable=0;points=[[0,0.5],[1,0.5]];portConstraint=eastwest;" vertex="1" parent="n4TWB-wOlsWJOXDKtbY9-49">
          <mxGeometry y="138" width="200" height="26" as="geometry" />
        </mxCell>
        <mxCell id="n4TWB-wOlsWJOXDKtbY9-91" value="create_board" style="text;strokeColor=none;fillColor=none;align=left;verticalAlign=top;spacingLeft=4;spacingRight=4;overflow=hidden;rotatable=0;points=[[0,0.5],[1,0.5]];portConstraint=eastwest;" vertex="1" parent="n4TWB-wOlsWJOXDKtbY9-49">
          <mxGeometry y="164" width="200" height="26" as="geometry" />
        </mxCell>
        <mxCell id="n4TWB-wOlsWJOXDKtbY9-118" value="valid_input?" style="text;strokeColor=none;fillColor=none;align=left;verticalAlign=top;spacingLeft=4;spacingRight=4;overflow=hidden;rotatable=0;points=[[0,0.5],[1,0.5]];portConstraint=eastwest;" vertex="1" parent="n4TWB-wOlsWJOXDKtbY9-49">
          <mxGeometry y="190" width="200" height="26" as="geometry" />
        </mxCell>
        <mxCell id="n4TWB-wOlsWJOXDKtbY9-52" value="code_broke?" style="text;strokeColor=none;fillColor=none;align=left;verticalAlign=top;spacingLeft=4;spacingRight=4;overflow=hidden;rotatable=0;points=[[0,0.5],[1,0.5]];portConstraint=eastwest;" vertex="1" parent="n4TWB-wOlsWJOXDKtbY9-49">
          <mxGeometry y="216" width="200" height="26" as="geometry" />
        </mxCell>
        <mxCell id="n4TWB-wOlsWJOXDKtbY9-54" value="feed_back" style="text;strokeColor=none;fillColor=none;align=left;verticalAlign=top;spacingLeft=4;spacingRight=4;overflow=hidden;rotatable=0;points=[[0,0.5],[1,0.5]];portConstraint=eastwest;" vertex="1" parent="n4TWB-wOlsWJOXDKtbY9-49">
          <mxGeometry y="242" width="200" height="26" as="geometry" />
        </mxCell>
        <mxCell id="n4TWB-wOlsWJOXDKtbY9-90" value="play_agin?" style="text;strokeColor=none;fillColor=none;align=left;verticalAlign=top;spacingLeft=4;spacingRight=4;overflow=hidden;rotatable=0;points=[[0,0.5],[1,0.5]];portConstraint=eastwest;" vertex="1" parent="n4TWB-wOlsWJOXDKtbY9-49">
          <mxGeometry y="268" width="200" height="26" as="geometry" />
        </mxCell>
        <mxCell id="n4TWB-wOlsWJOXDKtbY9-74" value="winner" style="text;strokeColor=none;fillColor=none;align=left;verticalAlign=top;spacingLeft=4;spacingRight=4;overflow=hidden;rotatable=0;points=[[0,0.5],[1,0.5]];portConstraint=eastwest;" vertex="1" parent="n4TWB-wOlsWJOXDKtbY9-49">
          <mxGeometry y="294" width="200" height="26" as="geometry" />
        </mxCell>
        <mxCell id="n4TWB-wOlsWJOXDKtbY9-63" value="" style="group" vertex="1" connectable="0" parent="WIyWlLk6GJQsqaUBKTNV-1">
          <mxGeometry x="20" y="60" width="206" height="180" as="geometry" />
        </mxCell>
        <mxCell id="n4TWB-wOlsWJOXDKtbY9-59" value="&lt;p style=&quot;margin: 0px ; margin-top: 6px ; text-align: center&quot;&gt;&lt;b&gt;diffculity = &#39;easy&#39;&lt;/b&gt;&lt;/p&gt;&lt;hr&gt;&lt;p style=&quot;margin: 0px ; margin-left: 8px&quot;&gt;Computer feed back pins order&lt;/p&gt;&lt;p style=&quot;margin: 0px ; margin-left: 8px&quot;&gt;corresponds to player pins order&lt;/p&gt;" style="align=left;overflow=fill;html=1;dropTarget=0;" vertex="1" parent="n4TWB-wOlsWJOXDKtbY9-63">
          <mxGeometry width="206" height="90" as="geometry" />
        </mxCell>
        <mxCell id="n4TWB-wOlsWJOXDKtbY9-60" value="" style="shape=component;jettyWidth=8;jettyHeight=4;" vertex="1" parent="n4TWB-wOlsWJOXDKtbY9-59">
          <mxGeometry x="1" width="20" height="20" relative="1" as="geometry">
            <mxPoint x="-24" y="4" as="offset" />
          </mxGeometry>
        </mxCell>
        <mxCell id="n4TWB-wOlsWJOXDKtbY9-61" value="&lt;p style=&quot;margin: 0px ; margin-top: 6px ; text-align: center&quot;&gt;&lt;b&gt;diffculity = &#39;hard&#39;&lt;/b&gt;&lt;/p&gt;&lt;hr&gt;&lt;p style=&quot;margin: 0px ; margin-left: 8px&quot;&gt;Computer feed back pins order is&amp;nbsp;&lt;/p&gt;&lt;p style=&quot;margin: 0px ; margin-left: 8px&quot;&gt;&lt;span&gt;random to player pins order&lt;/span&gt;&lt;/p&gt;" style="align=left;overflow=fill;html=1;dropTarget=0;" vertex="1" parent="n4TWB-wOlsWJOXDKtbY9-63">
          <mxGeometry y="90" width="206" height="90" as="geometry" />
        </mxCell>
        <mxCell id="n4TWB-wOlsWJOXDKtbY9-62" value="" style="shape=component;jettyWidth=8;jettyHeight=4;" vertex="1" parent="n4TWB-wOlsWJOXDKtbY9-61">
          <mxGeometry x="1" width="20" height="20" relative="1" as="geometry">
            <mxPoint x="-24" y="4" as="offset" />
          </mxGeometry>
        </mxCell>
        <mxCell id="n4TWB-wOlsWJOXDKtbY9-92" value="/&amp;nbsp; IMPROVMENTS NOTES&amp;nbsp; /" style="text;html=1;align=center;verticalAlign=middle;resizable=0;points=[];autosize=1;fontColor=#000000;" vertex="1" parent="WIyWlLk6GJQsqaUBKTNV-1">
          <mxGeometry x="38" y="10" width="170" height="20" as="geometry" />
        </mxCell>
        <mxCell id="n4TWB-wOlsWJOXDKtbY9-94" value="Adding computer difficulty" style="text;html=1;align=center;verticalAlign=middle;resizable=0;points=[];autosize=1;fontColor=#000000;" vertex="1" parent="WIyWlLk6GJQsqaUBKTNV-1">
          <mxGeometry x="48" y="30" width="150" height="20" as="geometry" />
        </mxCell>
        <object label="Human" id="n4TWB-wOlsWJOXDKtbY9-96">
          <mxCell style="shape=umlActor;verticalLabelPosition=bottom;verticalAlign=top;html=1;outlineConnect=0;labelBackgroundColor=none;fontColor=#000000;" vertex="1" parent="WIyWlLk6GJQsqaUBKTNV-1">
            <mxGeometry x="770" y="739" width="20" height="38" as="geometry" />
          </mxCell>
        </object>
        <mxCell id="n4TWB-wOlsWJOXDKtbY9-99" style="edgeStyle=orthogonalEdgeStyle;rounded=0;orthogonalLoop=1;jettySize=auto;html=1;entryX=0;entryY=0.5;entryDx=0;entryDy=0;fontColor=#000000;" edge="1" parent="WIyWlLk6GJQsqaUBKTNV-1" source="n4TWB-wOlsWJOXDKtbY9-38" target="n4TWB-wOlsWJOXDKtbY9-75">
          <mxGeometry relative="1" as="geometry" />
        </mxCell>
        <mxCell id="n4TWB-wOlsWJOXDKtbY9-101" style="edgeStyle=orthogonalEdgeStyle;rounded=0;orthogonalLoop=1;jettySize=auto;html=1;entryX=0;entryY=0.5;entryDx=0;entryDy=0;fontColor=#000000;" edge="1" parent="WIyWlLk6GJQsqaUBKTNV-1" source="n4TWB-wOlsWJOXDKtbY9-71" target="n4TWB-wOlsWJOXDKtbY9-91">
          <mxGeometry relative="1" as="geometry" />
        </mxCell>
        <mxCell id="n4TWB-wOlsWJOXDKtbY9-103" value="«interface»&lt;br&gt;&lt;b&gt;main&lt;/b&gt;" style="html=1;labelBackgroundColor=none;fontColor=#000000;" vertex="1" parent="WIyWlLk6GJQsqaUBKTNV-1">
          <mxGeometry x="580" y="733" width="110" height="50" as="geometry" />
        </mxCell>
        <mxCell id="n4TWB-wOlsWJOXDKtbY9-106" value="" style="endArrow=classic;startArrow=classic;html=1;fontColor=#000000;" edge="1" parent="WIyWlLk6GJQsqaUBKTNV-1">
          <mxGeometry width="50" height="50" relative="1" as="geometry">
            <mxPoint x="521" y="757.41" as="sourcePoint" />
            <mxPoint x="567" y="757.41" as="targetPoint" />
          </mxGeometry>
        </mxCell>
        <mxCell id="n4TWB-wOlsWJOXDKtbY9-107" value="" style="endArrow=classic;startArrow=classic;html=1;fontColor=#000000;" edge="1" parent="WIyWlLk6GJQsqaUBKTNV-1">
          <mxGeometry width="50" height="50" relative="1" as="geometry">
            <mxPoint x="699.9999999999998" y="757.41" as="sourcePoint" />
            <mxPoint x="746" y="757.41" as="targetPoint" />
          </mxGeometry>
        </mxCell>
        <mxCell id="n4TWB-wOlsWJOXDKtbY9-111" value="nope" style="text;html=1;align=center;verticalAlign=middle;resizable=0;points=[];autosize=1;fontColor=#000000;" vertex="1" parent="WIyWlLk6GJQsqaUBKTNV-1">
          <mxGeometry x="591" y="360" width="40" height="20" as="geometry" />
        </mxCell>
      </root>
    </mxGraphModel>
  </diagram>
</mxfile>
